<?xml version="1.0" standalone="no"?>
<!DOCTYPE svg PUBLIC "-//W3C//DTD SVG 20010904//EN"
 "http://www.w3.org/TR/2001/REC-SVG-20010904/DTD/svg10.dtd">
<svg version="1.0" xmlns="http://www.w3.org/2000/svg"
 width="68.000000pt" height="68.000000pt" viewBox="0 0 68.000000 68.000000"
 preserveAspectRatio="xMidYMid meet">

<g transform="translate(0.000000,68.000000) scale(0.100000,-0.100000)"
fill="#000000" stroke="none">
<path d="M49 641 l-24 -19 0 -282 0 -282 24 -19 c22 -18 42 -19 307 -19 268 0
284 1 293 19 8 14 7 22 -4 31 -11 9 -15 34 -15 94 0 64 -4 87 -20 111 -48 73
-58 97 -49 120 14 36 10 45 -21 45 l-30 0 0 90 c0 134 8 130 -239 130 -181 0
-201 -2 -222 -19z m422 -11 c16 -9 19 -22 19 -90 l0 -80 -33 0 c-44 0 -58 -15
-46 -48 13 -34 2 -80 -27 -115 -30 -35 -44 -87 -44 -162 -1 -92 -5 -95 -148
-95 -114 0 -122 1 -136 22 -24 33 -24 523 0 556 15 21 20 22 205 22 112 0 198
-4 210 -10z m69 -235 c-5 -15 -18 -21 -53 -23 -44 -3 -45 -2 -52 29 -10 43 6
50 65 30 41 -14 47 -19 40 -36z m18 -91 c38 -26 52 -67 52 -149 l0 -75 -125 0
-125 0 0 58 c0 123 42 182 129 182 26 0 56 -7 69 -16z"/>
<path d="M127 583 c-4 -3 -7 -21 -7 -40 l0 -33 144 0 c136 0 145 1 151 20 3
11 3 29 0 40 -6 19 -15 20 -144 20 -76 0 -141 -3 -144 -7z"/>
<path d="M92 423 c3 -32 7 -38 29 -41 31 -4 52 18 47 50 -2 19 -10 24 -41 26
l-38 3 3 -38z"/>
<path d="M205 440 c3 -5 42 -10 86 -10 46 0 79 4 79 10 0 6 -35 10 -86 10 -54
0 -83 -4 -79 -10z"/>
<path d="M205 400 c3 -5 24 -10 45 -10 21 0 42 5 45 10 4 6 -13 10 -45 10 -32
0 -49 -4 -45 -10z"/>
<path d="M90 305 c0 -36 0 -36 38 -33 34 3 37 6 37 33 0 27 -3 30 -37 33 -38
3 -38 3 -38 -33z"/>
<path d="M205 320 c3 -5 42 -10 86 -10 46 0 79 4 79 10 0 6 -35 10 -86 10 -54
0 -83 -4 -79 -10z"/>
<path d="M205 290 c-4 -6 13 -10 45 -10 32 0 49 4 45 10 -3 6 -24 10 -45 10
-21 0 -42 -4 -45 -10z"/>
<path d="M182 163 c3 -76 4 -78 28 -78 24 0 25 2 25 75 0 75 0 75 -28 78 l-28
3 3 -78z"/>
<path d="M94 187 c-3 -8 -4 -34 -2 -58 3 -39 6 -44 28 -44 24 0 25 3 25 55 0
49 -2 55 -23 58 -12 2 -24 -3 -28 -11z"/>
<path d="M264 156 c-3 -8 -4 -27 -2 -43 2 -22 9 -29 31 -31 26 -3 27 -2 27 42
0 43 -2 46 -25 46 -14 0 -28 -6 -31 -14z"/>
<path d="M426 254 c-56 -56 -17 -154 61 -154 46 0 93 45 93 90 0 22 -9 41 -29
61 -39 38 -88 40 -125 3z m82 -40 c3 -15 1 -16 -7 -4 -5 8 -14 11 -18 6 -4 -4
0 -13 10 -20 19 -15 23 -41 6 -52 -6 -3 -18 1 -27 11 -16 16 -16 17 6 10 28
-8 28 2 0 25 -19 15 -21 20 -9 34 17 20 35 16 39 -10z m-68 -24 c0 -5 -4 -10
-10 -10 -5 0 -10 5 -10 10 0 6 5 10 10 10 6 0 10 -4 10 -10z"/>
</g>
</svg>
