<svg xmlns="http://www.w3.org/2000/svg" viewBox="0 0 212.06 197.82"><defs><style>.cls-1{fill:none;stroke:#212683;stroke-miterlimit:10;stroke-width:6px;}.cls-2{fill:#1f268e;}.cls-3{fill:#212683;}</style></defs><title>Eye</title><g id="Layer_2" data-name="Layer 2"><g id="Layer_1-2" data-name="Layer 1"><path class="cls-1" d="M121.37,63.82h2.08A15.57,15.57,0,0,1,139,79.38h0"/><path class="cls-1" d="M162.82,84.73a59.24,59.24,0,1,0,0,33.69"/><circle class="cls-1" cx="106.03" cy="101.58" r="26.09"/><path class="cls-1" d="M3.47,101.58a118.42,118.42,0,0,0,205.12,0,118.42,118.42,0,0,0-205.12,0Z"/><path class="cls-2" d="M19.44,15.3l-2.93-.05.05-2.93a3.61,3.61,0,0,0-7.22-.13l-.05,2.93-2.93-.05a3.61,3.61,0,1,0-.13,7.22l2.93.05-.05,2.93a3.61,3.61,0,0,0,7.22.13l.05-2.93,2.93.05a3.61,3.61,0,0,0,.13-7.22Z"/><path class="cls-2" d="M183.64,6.66l-2.93-.05.05-2.93a3.61,3.61,0,0,0-7.22-.13l-.05,2.93-2.93-.05a3.61,3.61,0,1,0-.13,7.22l2.93.05-.05,2.93a3.61,3.61,0,0,0,7.22.13l.05-2.93,2.93.05a3.61,3.61,0,0,0,.13-7.22Z"/><path class="cls-2" d="M174.42,187.76l-2.16,0,0-2.16a2.66,2.66,0,0,0-5.32-.1l0,2.16-2.16,0a2.66,2.66,0,1,0-.1,5.32l2.16,0,0,2.16a2.66,2.66,0,0,0,5.32.1l0-2.16,2.16,0a2.66,2.66,0,0,0,.1-5.32Z"/><line class="cls-1" x1="95.71" y1="77.61" x2="95.71" y2="101.58"/><line class="cls-1" x1="95.71" y1="104.84" x2="95.71" y2="110.37"/><circle class="cls-3" cx="165.2" cy="101.58" r="3.29"/></g></g></svg>