<svg xmlns="http://www.w3.org/2000/svg" width="48" height="47.996" viewBox="0 0 48 47.996">
  <g>
    <path d="M47.915,46.925,41.45,34.8a.728.728,0,0,0-1.284.685L46.631,47.61a.727.727,0,0,0,.643.385.711.711,0,0,0,.341-.086A.729.729,0,0,0,47.915,46.925Z" fill="#1a171b"/>
    <path d="M8.347,32.985a.726.726,0,0,0-.983.3L.091,46.925a.728.728,0,0,0,.3.984A.713.713,0,0,0,.732,48a.727.727,0,0,0,.643-.385L8.648,33.967A.726.726,0,0,0,8.347,32.985Z" fill="#1a171b"/>
    <path d="M34.692,33.4a.727.727,0,0,0-1.38.461L37.857,47.5a.729.729,0,0,0,.69.5.742.742,0,0,0,.23-.037.728.728,0,0,0,.46-.92Z" fill="#1a171b"/>
    <path d="M12.512,38.106a.724.724,0,0,0-.92.459L8.768,47.038a.728.728,0,0,0,.46.92.742.742,0,0,0,.23.037.729.729,0,0,0,.69-.5l2.823-8.473A.726.726,0,0,0,12.512,38.106Z" fill="#1a171b"/>
    <path d="M24,8.946A4.473,4.473,0,1,0,19.53,4.473,4.478,4.478,0,0,0,24,8.946Zm0-7.492a3.019,3.019,0,1,1-3.018,3.02A3.022,3.022,0,0,1,24,1.454Z" fill="#1a171b"/>
    <path d="M46.892,22.292a.728.728,0,0,0,.752-1.246C43.635,18.63,37.937,17.575,32.4,18.22a.728.728,0,0,0,.169,1.446C37.8,19.05,43.152,20.036,46.892,22.292Z" fill="#1a171b"/>
    <path d="M41.268,6.837a2.866,2.866,0,1,0-4.053-4.053l-7,7A3.675,3.675,0,0,1,27.6,10.868H20.394a3.671,3.671,0,0,1-2.615-1.084l-7-7A2.866,2.866,0,0,0,6.727,6.837L16.972,17.13a2.942,2.942,0,0,1,.861,2.088v4.045C12.193,24.5,5.62,23.771,1.1,21.046a.728.728,0,0,0-.752,1.246,23.733,23.733,0,0,0,12.011,2.994,27.432,27.432,0,0,0,5.47-.553V44.577a3.446,3.446,0,0,0,6.892,0V41.538a3.441,3.441,0,0,0,5.438-2.779V19.218a2.943,2.943,0,0,1,.862-2.088ZM26.717,40.724a1.981,1.981,0,0,1-1.992-1.965v-6.4a.727.727,0,1,0-1.454,0V44.578a1.992,1.992,0,0,1-3.983,0v-15.7h9.42V38.76A1.98,1.98,0,0,1,26.717,40.724Zm3.276-24.619a4.381,4.381,0,0,0-1.286,3.113v8.211h-9.42V24.39a19.8,19.8,0,0,0,5.086-2.1,16.726,16.726,0,0,1,1.99-1.02.727.727,0,1,0-.576-1.334,18.044,18.044,0,0,0-2.167,1.107,18.323,18.323,0,0,1-4.334,1.848V19.217A4.385,4.385,0,0,0,18,16.1L7.754,5.809a1.411,1.411,0,1,1,2-2l7,7a5.12,5.12,0,0,0,3.644,1.508H27.6a5.119,5.119,0,0,0,3.643-1.508l7-7a1.411,1.411,0,1,1,1.995,2Z" fill="#1a171b"/>
  </g>
</svg>
