<svg xmlns="http://www.w3.org/2000/svg" viewBox="0 0 64 59.4"><defs><style>.cls-1{fill-rule:evenodd;}</style></defs><title>business case</title><g id="Layer_2" data-name="Layer 2"><g id="business_case" data-name="business case"><path class="cls-1" d="M60.43,35.23V18.9a7.72,7.72,0,0,0-7.71-7.71H47.22V6.61A6.61,6.61,0,0,0,40.62,0H19.81A6.61,6.61,0,0,0,13.2,6.61v4.58H7.71A7.72,7.72,0,0,0,0,18.9V46.32A7.72,7.72,0,0,0,7.71,54H38.07a14.61,14.61,0,1,0,22.36-18.8Zm-37.82-24h-2v-3a1,1,0,0,1,1-1H38.83a1,1,0,0,1,1,1v3H22.61Zm16.38,2h9.6v3.63H39ZM15.2,6.61A4.61,4.61,0,0,1,19.81,2H40.62a4.61,4.61,0,0,1,4.6,4.61v4.58H41.8v-3a3,3,0,0,0-3-3H21.6a3,3,0,0,0-3,3v3H15.2Zm-1,6.58h7.41v3.63H12V13.19Zm-6.49,0H10v4.63a1,1,0,0,0,1,1h11.6a1,1,0,0,0,1-1V13.19H37v4.63a1,1,0,0,0,1,1h11.6a1,1,0,0,0,1-1V13.19h2.12a5.72,5.72,0,0,1,5.71,5.71V33.32a14.59,14.59,0,0,0-23.31,8.27H2V18.9A5.72,5.72,0,0,1,7.71,13.19ZM7.71,52A5.72,5.72,0,0,1,2,46.32V43.59H34.82c0,.39-.06.79-.06,1.19A14.52,14.52,0,0,0,36.71,52ZM49.38,57.4A12.62,12.62,0,1,1,62,44.78,12.64,12.64,0,0,1,49.38,57.4Z"/><path class="cls-1" d="M50.92,43.46c-.34-.1-.69-.14-1-.22s-1.15-.28-1.39-.74a.83.83,0,0,1-.09-.37,1,1,0,0,1,.36-.84,1.68,1.68,0,0,1,1.4-.13,2.71,2.71,0,0,1,1,.5,1,1,0,0,0,1.22.15,1,1,0,0,0,.4-.77,1.41,1.41,0,0,0-.51-1h0a3.56,3.56,0,0,0-1.42-.74l-.33-.09V38a.74.74,0,0,0-.28-.63c-.48-.37-1.57-.23-1.57.52v1.29l-.32.09a2.9,2.9,0,0,0-1.73,1.36,3.41,3.41,0,0,0-.41,2.24,2,2,0,0,0,.91,1.49,5.61,5.61,0,0,0,1.68.56,5,5,0,0,1,1.12.38,2.55,2.55,0,0,1,.51.34,1.17,1.17,0,0,1,.47,1.22,1.33,1.33,0,0,1-1.16.83A2,2,0,0,1,48,46.91h0a1.48,1.48,0,0,0-.82-.59,1,1,0,0,0-.73.13,1,1,0,0,0-.43.67,1.21,1.21,0,0,0,.26.93,3.75,3.75,0,0,0,2.07,1.4l.33.09v1a.84.84,0,0,0,.41.77.93.93,0,0,0,1.45-.73V49.5l.09-.09a3.74,3.74,0,0,0,1.66-1A2.91,2.91,0,0,0,53.13,46,3,3,0,0,0,50.92,43.46Z"/></g></g></svg>