<?xml version="1.0" encoding="utf-8"?>
<!-- Generator: Adobe Illustrator 16.0.0, SVG Export Plug-In . SVG Version: 6.00 Build 0)  -->
<!DOCTYPE svg PUBLIC "-//W3C//DTD SVG 1.1//EN" "http://www.w3.org/Graphics/SVG/1.1/DTD/svg11.dtd">
<svg version="1.1" id="Layer_1" xmlns="http://www.w3.org/2000/svg" xmlns:xlink="http://www.w3.org/1999/xlink" x="0px" y="0px"
	 width="128px" height="128px" viewBox="0 0 128 128" enable-background="new 0 0 128 128" xml:space="preserve">
<g>
	<g>
		<g>
			<path fill="#00FFC2" d="M84.358,110.465H71.579v-4.014h12.779c5.618,0,10.188-4.604,10.188-10.262V76.223h9.051l-6.584-11.459
				l3.48-1.998l10.038,17.471H98.561v15.953C98.561,104.061,92.189,110.465,84.358,110.465z"/>
		</g>
		<g>
			<path fill="#00FFC2" d="M17.232,124.793h-4.013V83.648C4.688,74.756,0,63.09,0,50.703C0,24.513,21.195,3.207,47.247,3.207
				c17.167,0,33.011,9.384,41.348,24.49l-3.514,1.939C77.449,15.809,62.953,7.22,47.247,7.22c-23.839,0-43.234,19.506-43.234,43.483
				c0,11.6,4.487,22.508,12.636,30.715l0.583,0.586V124.793z"/>
		</g>
	</g>
	<g>
		<g>
			
				<rect x="44.282" y="99.461" transform="matrix(0.2602 0.9655 -0.9655 0.2602 145.4702 40.5243)" fill="#00FFC2" width="4.013" height="31.472"/>
		</g>
		<g>
			
				<rect x="44.282" y="57.169" transform="matrix(0.2915 0.9566 -0.9566 0.2915 101.0456 6.2723)" fill="#00FFC2" width="4.014" height="28.352"/>
		</g>
		<g>
			
				<rect x="44.282" y="71.788" transform="matrix(0.2915 0.9566 -0.9566 0.2915 115.0296 16.6303)" fill="#00FFC2" width="4.014" height="28.352"/>
		</g>
		<g>
			
				<rect x="44.283" y="84.689" transform="matrix(0.2601 0.9656 -0.9656 0.2601 131.3647 29.7199)" fill="#00FFC2" width="4.011" height="31.782"/>
		</g>
		<g>
			<g>
				<polygon fill="#00FFC2" points="126.84,64.187 64.298,45.292 64.298,41.451 126.84,22.556 128,26.398 71.817,43.372 128,60.345 
									"/>
			</g>
		</g>
		<g>
			<g>
				
					<rect x="33.169" y="90.796" transform="matrix(0.0692 0.9976 -0.9976 0.0692 150.4079 24.4015)" fill="#00FFC2" width="57.916" height="4.013"/>
			</g>
			<g>
				
					<rect x="28.444" y="63.845" transform="matrix(0.9976 0.0691 -0.0691 0.9976 6.4865 -1.8826)" fill="#00FFC2" width="4.013" height="57.916"/>
			</g>
		</g>
		<g>
			<path fill="#00FFC2" d="M66.138,65.326H26.441V49.832h39.697V65.326z M30.455,61.313h31.67v-7.468h-31.67V61.313z"/>
		</g>
		<g>
			<path fill="#00FFC2" d="M60.428,53.845H32.15V36.916h28.278V53.845z M36.163,49.832h20.252v-8.902H36.163V49.832z"/>
		</g>
		<g>
			<polygon fill="#00FFC2" points="61.96,38.253 46.29,27.708 30.619,38.253 28.378,34.924 46.29,22.871 64.201,34.924 			"/>
		</g>
		<g>
			<rect x="21.547" y="119.914" fill="#00FFC2" width="49.483" height="4.014"/>
		</g>
		<g>
			<rect x="44.283" y="44.424" fill="#00FFC2" width="4.013" height="7.653"/>
		</g>
	</g>
</g>
</svg>
